<?xml version="1.0" standalone="no"?>
<!DOCTYPE svg PUBLIC "-//W3C//DTD SVG 20010904//EN"
 "http://www.w3.org/TR/2001/REC-SVG-20010904/DTD/svg10.dtd">
<svg version="1.0" xmlns="http://www.w3.org/2000/svg"
 width="700.000000pt" height="700.000000pt" viewBox="0 0 700.000000 700.000000"
 preserveAspectRatio="xMidYMid meet">
<metadata>
Created by potrace 1.14, written by Peter Selinger 2001-2017
</metadata>
<g transform="translate(0.000000,700.000000) scale(0.100000,-0.100000)"
fill="#000000" stroke="none">
<path d="M3509 6987 c-44 -34 -50 -58 -64 -237 -9 -124 -49 -281 -87 -336 -19
-29 -28 -34 -54 -31 -17 3 -45 -1 -61 -8 -39 -16 -41 -30 -41 -264 l-1 -184
-39 -41 c-34 -35 -39 -46 -36 -76 8 -66 25 -155 41 -210 30 -101 17 -136 -69
-191 -29 -18 -62 -41 -72 -51 -43 -39 -34 -128 40 -382 23 -79 35 -146 38
-198 l3 -79 -47 -34 -48 -35 23 -92 c12 -51 39 -161 61 -245 l39 -152 -25 -70
-24 -69 26 -69 c40 -105 48 -134 54 -188 2 -27 12 -81 20 -120 9 -38 19 -83
22 -100 8 -41 8 -183 -1 -191 -12 -12 -67 47 -108 117 -21 37 -61 88 -89 115
-48 46 -94 111 -154 216 -15 26 -25 49 -24 50 10 10 -85 114 -200 221 -50 46
-53 47 -114 47 -46 1 -69 6 -85 19 -12 10 -56 86 -98 169 -63 123 -86 160
-127 197 l-50 45 -72 -2 c-39 -1 -79 3 -89 8 -10 6 -50 59 -90 119 -39 60 -84
118 -100 129 -26 19 -29 19 -75 3 -26 -9 -60 -17 -76 -17 -25 0 -224 105 -315
166 -32 21 -36 22 -64 8 -26 -14 -28 -19 -22 -50 3 -19 35 -94 70 -167 36 -73
65 -145 65 -160 0 -15 -7 -44 -16 -65 -22 -49 -19 -74 13 -141 31 -62 85 -120
217 -231 48 -41 100 -89 114 -108 25 -32 25 -34 9 -68 -22 -46 -21 -80 3 -114
25 -36 130 -119 190 -151 77 -41 180 -120 180 -137 0 -9 -13 -37 -29 -61 l-29
-44 22 -36 c15 -25 41 -45 82 -64 86 -41 255 -142 286 -172 16 -14 28 -36 28
-48 0 -51 66 -117 117 -117 10 0 39 -20 65 -44 56 -53 83 -68 166 -91 59 -17
122 -59 122 -83 0 -31 -171 -23 -415 19 -132 23 -146 25 -222 34 -49 6 -52 5
-65 -22 -13 -26 -17 -28 -73 -27 -95 2 -217 15 -263 28 -9 3 -33 7 -52 10 -19
3 -69 12 -110 21 -41 9 -86 17 -99 17 -32 1 -71 -44 -71 -82 0 -35 -26 -46
-73 -31 -30 9 -58 14 -167 26 -25 3 -65 7 -90 10 -61 7 -125 14 -185 20 -47 5
-70 8 -140 20 -86 14 -114 -19 -86 -100 l20 -55 -24 -16 c-30 -19 -287 -103
-327 -106 -35 -3 -60 -33 -52 -64 9 -36 69 -60 224 -91 14 -3 30 -6 35 -7 6
-1 37 -8 70 -15 94 -21 115 -35 116 -79 1 -55 8 -85 23 -101 20 -19 72 -21
125 -5 25 8 62 17 81 20 19 3 46 7 60 10 38 6 309 6 319 0 5 -4 12 -20 16 -36
13 -57 53 -68 161 -46 12 2 37 7 55 10 19 3 70 17 114 33 69 23 96 27 200 27
89 0 136 -4 182 -18 58 -18 65 -18 144 -2 46 8 107 18 134 22 28 3 59 8 70 10
11 2 36 7 55 10 49 8 98 23 150 47 55 25 130 33 158 18 20 -11 20 -13 5 -39
-9 -15 -54 -54 -101 -87 -80 -57 -86 -64 -123 -142 l-38 -81 -122 -84 -123
-83 2 -60 3 -60 -100 -98 c-56 -54 -104 -109 -107 -122 -3 -13 -1 -45 4 -72 9
-42 8 -54 -15 -103 -55 -120 -65 -154 -60 -203 5 -56 6 -58 45 -59 23 -1 49
14 104 58 40 32 105 78 144 102 l70 42 47 -16 c42 -14 49 -14 79 0 54 26 138
112 168 171 22 44 119 139 167 163 32 17 52 40 97 113 31 50 56 93 56 94 0 6
91 138 129 186 73 94 97 87 84 -26 -4 -38 -8 -243 -9 -455 -1 -347 -5 -485
-18 -560 -3 -14 -7 -41 -10 -60 -5 -33 -9 -50 -21 -110 -3 -14 -8 -70 -11
-125 -3 -55 -14 -135 -25 -177 -10 -42 -21 -105 -24 -140 -9 -112 -17 -167
-31 -220 -4 -12 5 -22 28 -34 28 -15 50 -16 168 -9 74 5 186 7 248 6 100 -2
117 0 147 19 47 29 49 63 10 140 -29 59 -37 103 -40 227 -2 58 -12 138 -23
185 -11 46 -23 110 -26 143 -14 144 -17 169 -22 177 -7 10 -13 208 -19 563 -2
160 -6 310 -8 335 -3 25 -8 75 -12 111 -8 80 4 94 42 49 15 -18 32 -37 38 -44
6 -6 35 -40 64 -76 133 -160 186 -198 294 -213 58 -8 83 -37 113 -136 18 -57
28 -71 82 -105 31 -20 66 -30 129 -38 l86 -11 76 -67 c112 -98 177 -144 261
-186 76 -37 192 -84 210 -84 5 0 16 16 25 36 13 31 13 40 -1 79 -32 95 -74
189 -116 258 -41 68 -43 76 -41 139 2 67 2 68 -40 112 -35 36 -188 146 -203
146 -3 0 -23 14 -44 32 -36 28 -60 81 -52 112 4 14 -20 80 -36 98 -22 26 -109
72 -172 93 -51 16 -190 85 -245 121 -28 18 -40 45 -25 54 7 4 46 -1 88 -11 42
-9 102 -20 132 -23 30 -4 66 -8 80 -11 14 -3 43 -7 65 -10 22 -3 49 -7 60 -9
11 -2 41 -7 67 -10 25 -4 97 -15 158 -26 99 -18 113 -19 126 -5 9 8 18 15 22
15 4 0 18 16 31 35 28 42 40 43 134 11 67 -22 91 -28 157 -41 14 -3 70 -5 125
-6 55 0 122 -6 150 -13 27 -7 57 -11 67 -8 9 2 35 28 56 56 l40 52 113 -1
c109 -2 278 -14 289 -20 3 -2 33 -6 66 -10 70 -7 73 -5 102 70 26 66 52 84
132 91 91 8 166 32 202 66 28 26 29 30 15 51 -9 13 -29 24 -53 29 -22 3 -50 9
-64 11 -14 3 -64 24 -111 46 -48 23 -91 41 -95 41 -5 0 -22 24 -37 54 -30 56
-42 64 -92 61 -16 -2 -77 -6 -135 -10 -58 -5 -159 -9 -226 -9 -136 -1 -160 7
-143 50 13 37 11 90 -5 103 -11 9 -48 7 -158 -9 -78 -11 -161 -23 -183 -26
-22 -3 -67 -9 -100 -14 -33 -5 -84 -12 -114 -15 -30 -4 -62 -8 -73 -10 -12 -3
-23 6 -33 24 -14 28 -53 51 -91 53 -29 2 -97 -13 -111 -24 -22 -18 -169 -50
-333 -73 -25 -4 -70 -12 -100 -19 -49 -11 -126 -14 -242 -8 -36 2 -37 3 -26
27 7 17 25 29 52 37 72 21 264 154 376 262 118 114 176 155 303 216 93 45 150
98 202 186 26 44 26 46 11 85 -18 44 -9 70 28 87 99 45 456 349 456 387 0 9
-18 35 -40 57 -46 48 -54 31 70 161 41 43 98 93 127 110 83 50 101 113 41 146
-65 36 -64 32 -24 95 20 31 36 59 36 63 0 3 6 14 14 22 28 31 76 139 76 170 0
65 -70 92 -126 49 -16 -13 -33 -26 -39 -30 -5 -4 -23 -18 -40 -31 -37 -29
-111 -72 -146 -86 -19 -7 -34 -6 -53 4 -58 30 -91 29 -143 -5 -38 -25 -63 -55
-115 -139 -101 -162 -154 -210 -219 -196 -48 11 -100 -6 -138 -44 -39 -39
-174 -257 -206 -331 -33 -78 -37 -80 -105 -62 -59 16 -59 16 -85 -8 -14 -14
-39 -47 -55 -75 -16 -27 -37 -59 -47 -70 -47 -51 -97 -121 -129 -180 -82 -150
-285 -394 -303 -366 -11 18 -10 23 29 141 60 179 141 540 121 540 -3 0 -19 16
-35 36 -28 35 -28 36 -12 72 9 21 42 114 74 208 48 143 56 176 50 208 -5 25
-4 46 6 64 8 15 23 58 35 96 17 55 19 71 9 78 -7 5 -32 20 -54 34 -36 21 -45
34 -68 100 -33 91 -33 93 -16 169 8 33 15 65 16 70 27 123 56 294 58 343 3 56
1 67 -22 95 -30 36 -74 77 -83 77 -10 0 -29 50 -29 79 0 15 9 54 21 87 33 95
24 205 -18 218 -10 3 -31 7 -47 10 -16 3 -31 7 -33 10 -11 11 -3 84 17 151 11
38 20 86 20 105 0 38 -24 81 -43 79 -88 -11 -126 15 -133 91 -2 30 -11 82 -19
115 -23 99 -26 118 -30 216 -6 122 -11 145 -42 169 -29 23 -60 25 -84 7z
m-1989 -4741 c0 -3 -4 -8 -10 -11 -5 -3 -10 -1 -10 4 0 6 5 11 10 11 6 0 10
-2 10 -4z"/>
</g>
</svg>
